<svg version="1.1" id="Layer_1" xmlns="http://www.w3.org/2000/svg" xmlns:xlink="http://www.w3.org/1999/xlink" x="0px" y="0px"
	 viewBox="0 0 30 30" style="enable-background:new 0 0 30 30;" xml:space="preserve">
<style type="text/css">
	.st0{fill:#9FA1A4;}
</style>
<g>
	<path class="st0" d="M27.2,0H2.8C1.2,0,0,0.8,0,2.8v13v2.4v7.8v2.2C0,29.8,1.2,30,2.8,30h6.5h4.8h3h10.2c1.5,0,2.8-0.2,2.8-1.7
		V15.8v-5.6V2.8C30,0.8,28.8,0,27.2,0z M27,18.9c0,1.5-1.3,2.8-2.8,2.8H12.9l-4.9,5c-0.1,0.1-0.2,0.1-0.3,0.1c-0.1,0-0.1,0-0.2,0
		c-0.2-0.1-0.3-0.3-0.2-0.5l1-4.6H5.8c-1.5,0-2.8-1.3-2.8-2.8V9.7c0-1.5,1.3-2.8,2.8-2.8h18.3c1.5,0,2.8,1.3,2.8,2.8V18.9z"/>
	<path class="st0" d="M6,15.9v0.6h2.2c1.2,0,1.9-0.6,1.9-1.5c0-0.7-0.4-1.1-1.1-1.3c0.5-0.2,0.9-0.6,0.9-1.2c0-0.7-0.6-1.4-1.8-1.4
		H6v0.7h0.6v4H6z M7.3,11.9h0.7c0.7,0,1.1,0.3,1.1,0.8c0,0.5-0.4,0.9-1.1,0.9H7.3V11.9z M7.3,14.2h0.8c0.8,0,1.3,0.3,1.3,0.9
		c0,0.5-0.4,0.9-1.1,0.9H7.3V14.2z"/>
	<polygon class="st0" points="11.9,10.7 10.7,10.7 10.7,11.3 11.2,11.3 11.2,16 10.7,16 10.7,16.6 12.5,16.6 12.5,16 11.9,16 	"/>
	<path class="st0" d="M13.1,14.8c0,1,0.7,1.8,1.8,1.8c1.1,0,1.8-0.8,1.8-1.8c0-1-0.7-1.8-1.8-1.8C13.8,13,13.1,13.9,13.1,14.8z
		 M16,14.8c0,0.7-0.4,1.2-1.1,1.2c-0.7,0-1.1-0.5-1.1-1.2c0-0.7,0.4-1.2,1.1-1.2C15.5,13.6,16,14.1,16,14.8z"/>
	<path class="st0" d="M18.1,16.9c-0.3,0-0.4,0.2-0.4,0.4c0,0.2,0.1,0.3,0.2,0.4c0.2,0.2,0.7,0.4,1.3,0.4c0.5,0,1-0.2,1.3-0.5
		c0.2-0.2,0.3-0.6,0.3-1v-2.9h0.5v-0.6H20v0.3C19.8,13.2,19.4,13,19,13c-1,0-1.7,0.8-1.7,1.8c0,1,0.7,1.7,1.6,1.7
		c0.5,0,0.8-0.2,1.1-0.5v0.6c0,0.3-0.1,0.5-0.2,0.6c-0.2,0.2-0.5,0.3-0.8,0.3c-0.3,0-0.5-0.1-0.6-0.1c0-0.1,0-0.1,0-0.2
		C18.5,17.1,18.3,16.9,18.1,16.9z M19.1,15.9c-0.6,0-1.1-0.4-1.1-1.1c0-0.7,0.4-1.2,1.1-1.2c0.4,0,0.7,0.1,0.9,0.3v1.5
		C19.8,15.8,19.4,15.9,19.1,15.9z"/>
	<path class="st0" d="M22.2,15.4c-0.2,0-0.4,0.2-0.4,0.4c0,0.2,0.1,0.3,0.2,0.4c0.2,0.2,0.8,0.4,1.3,0.4c0.8,0,1.4-0.4,1.4-1.1
		c0-0.7-0.5-0.9-1.3-1c-0.6-0.1-0.8-0.2-0.8-0.5c0-0.2,0.2-0.4,0.7-0.4c0.2,0,0.4,0,0.6,0.1c0,0.1,0,0.1,0,0.2
		c0,0.2,0.2,0.4,0.4,0.4c0.2,0,0.4-0.2,0.4-0.4c0-0.2-0.1-0.3-0.2-0.4c-0.2-0.2-0.7-0.4-1.1-0.4c-0.9,0-1.4,0.5-1.4,1
		c0,0.6,0.5,0.8,1.4,1.1c0.5,0.1,0.8,0.2,0.8,0.5c0,0.3-0.3,0.5-0.8,0.5c-0.3,0-0.6-0.1-0.7-0.2c0-0.1,0-0.1,0-0.2
		C22.6,15.5,22.4,15.4,22.2,15.4z"/>
</g>
</svg>