<?xml version="1.0" encoding="utf-8"?>
<!-- Generator: Adobe Illustrator 20.1.0, SVG Export Plug-In . SVG Version: 6.00 Build 0)  -->
<svg version="1.1" id="Layer_1" xmlns="http://www.w3.org/2000/svg" xmlns:xlink="http://www.w3.org/1999/xlink" x="0px" y="0px"
	 width="38px" height="21px" viewBox="0 0 38 21" style="enable-background:new 0 0 38 21;" xml:space="preserve">
<style type="text/css">
	.st0{fill:#FFFFFF;}
	.st1{fill:none;stroke:#808080;stroke-width:2;stroke-miterlimit:10;}
</style>
<g id="Shape_291_copy_28">
	<path class="st0" d="M1.5,5.1c0,1.2,0.5,2.3,1.4,3.1l13.5,10.9l0.1,0.1c0.2,0.1,0.4,0.3,0.6,0.4h0.1h0.1c0.2,0.1,0.4,0.2,0.6,0.2
		c0.1,0,0.1,0,0.2,0c0.2,0,0.4,0.1,0.6,0.1c0.1,0,0.2,0,0.3,0h0.1c0.1,0,0.2,0,0.3,0c0.2,0,0.4-0.1,0.6-0.1c0.1,0,0.1,0,0.2,0
		c0.2-0.1,0.5-0.1,0.7-0.2l0,0H21c0.2-0.1,0.5-0.3,0.7-0.4l0.3-0.3l0,0L35,8.3c1-0.8,1.5-1.9,1.5-3.2c0-0.9-0.3-1.8-0.9-2.5
		l-0.1-0.1c-1.5-1.7-4.1-2-5.9-0.5L19,10.5L8.5,2C6.7,0.5,4.1,0.8,2.6,2.5C1.9,3.2,1.5,4.2,1.5,5.1z"/>
	<path class="st1" d="M1.5,5.1c0,1.2,0.5,2.3,1.4,3.1l13.5,10.9l0.1,0.1c0.2,0.1,0.4,0.3,0.6,0.4h0.1h0.1c0.2,0.1,0.4,0.2,0.6,0.2
		c0.1,0,0.1,0,0.2,0c0.2,0,0.4,0.1,0.6,0.1c0.1,0,0.2,0,0.3,0h0.1c0.1,0,0.2,0,0.3,0c0.2,0,0.4-0.1,0.6-0.1c0.1,0,0.1,0,0.2,0
		c0.2-0.1,0.5-0.1,0.7-0.2l0,0H21c0.2-0.1,0.5-0.3,0.7-0.4l0.3-0.3l0,0L35,8.3c1-0.8,1.5-1.9,1.5-3.2c0-0.9-0.3-1.8-0.9-2.5
		l-0.1-0.1c-1.5-1.7-4.1-2-5.9-0.5L19,10.5L8.5,2C6.7,0.5,4.1,0.8,2.6,2.5C1.9,3.2,1.5,4.2,1.5,5.1z"/>
</g>
</svg>
