<svg version="1.1" id="Layer_2" xmlns="http://www.w3.org/2000/svg" xmlns:xlink="http://www.w3.org/1999/xlink" x="0px" y="0px"
	 viewBox="0 0 30 30" style="enable-background:new 0 0 30 30;" xml:space="preserve">
<style type="text/css">
	.st0{fill:#9FA1A4;}
</style>
<path class="st0" d="M27.6,0h-1.5H3.9H2.4C1.1,0,0,1.1,0,2.4v1.5v22.3v1.5C0,28.9,1.1,30,2.4,30h1.5c0,0,0,0,0,0h22.3c0,0,0,0,0,0
	h1.5c1.3,0,2.4-1.1,2.4-2.4V2.4C30,1.1,28.9,0,27.6,0z M15,24.3c5.1,0,9.3-3.9,9.3-8.9c0-0.9-0.1-1.4-0.4-2.4h2.6l0.4-0.3v12.7
	c0,0.7-0.9,1.6-1.6,1.6H4.5C3.9,27,3,26,3,25.4V13h3.1c-0.3,1-0.4,1.5-0.4,2.4C5.7,20.4,9.9,24.3,15,24.3z M21.1,14.9
	c0,3.2-2.7,5.8-6,5.8c-3.3,0-6-2.6-6-5.8c0-3.2,2.7-5.8,6-5.8C18.4,9.1,21.1,11.7,21.1,14.9z M27,7.6C27,8.4,26.4,9,25.6,9h-3.3
	C21.6,9,21,8.4,21,7.6V4.4C21,3.6,21.6,3,22.4,3h3.3C26.4,3,27,3.6,27,4.4V7.6z"/>
</svg>