<svg version="1.1" id="Layer_1" xmlns="http://www.w3.org/2000/svg" xmlns:xlink="http://www.w3.org/1999/xlink" x="0px" y="0px"
	 viewBox="0 0 30 30" style="enable-background:new 0 0 30 30;" xml:space="preserve">
<style type="text/css">
	.st0{fill:#9FA1A4;}
</style>
<path class="st0" d="M27.2,0H2.8C1.2,0,0,0.8,0,2.8v13v2.4v7.8v2.2C0,29.8,1.2,30,2.8,30h6.5h4.8h3h10.2c1.5,0,2.8-0.2,2.8-1.7V15.8
	v-5.6V2.8C30,0.8,28.8,0,27.2,0z M9,25H4V11h5V25z M6.8,8.9c-1.4,0-2.5-1.1-2.5-2.5c0-1.4,1.1-2.5,2.5-2.5c1.4,0,2.5,1.1,2.5,2.5
	C9.3,7.8,8.2,8.9,6.8,8.9z M26,25h-5v-7c0-1.6-0.1-3.7-2.3-3.7c-2.3,0-2.7,1.8-2.7,3.6V25h-4V11h4v1h-0.1c0.6,0,2.4-1.9,4.5-1.9
	c4.4,0,5.6,3.3,5.6,7V25z"/>
</svg>