<?xml version="1.0" encoding="UTF-8"?>
<!-- Generator: Adobe Illustrator 20.1.0, SVG Export Plug-In . SVG Version: 6.00 Build 0)  -->
<svg version="1.1" id="Layer_1" xmlns="http://www.w3.org/2000/svg" xmlns:xlink="http://www.w3.org/1999/xlink" x="0px" y="0px" width="20px" height="20.7px" viewBox="0 0 20 20.7" style="enable-background:new 0 0 20 20.7;" xml:space="preserve">
<style type="text/css">
	.st0{fill:#828282;}
</style>
<path class="st0" d="M5,12.8c-2.1,0-3.8-1.6-3.8-3.7c0-2,1.7-3.7,3.8-3.7S8.8,7,8.8,9.1S7.1,12.8,5,12.8z M2.8,3.4  c0-1.2,1-2.1,2.2-2.1s2.2,1,2.2,2.1v1.4C6.5,4.5,5.8,4.3,5,4.3S3.5,4.5,2.8,4.8V3.4z M8.5,5.7V3.4C8.5,1.5,6.9,0,5,0  S1.5,1.5,1.5,3.4v2.3C0.6,6.6,0,7.8,0,9.2c0,2.7,2.2,4.9,5,4.9s5-2.2,5-4.9C10,7.8,9.4,6.6,8.5,5.7L8.5,5.7z M5,8.1  c0.2,0,0.3-0.1,0.3-0.3V6.3C5.3,6.1,5.2,6,5,6S4.7,6.1,4.7,6.3v1.5C4.7,8,4.8,8.1,5,8.1z M3.9,9.2c0-0.2-0.1-0.3-0.3-0.3H2.1  C1.9,8.9,1.8,9,1.8,9.2s0.1,0.3,0.3,0.3h1.6C3.8,9.5,3.9,9.3,3.9,9.2z M5,10.2c-0.2,0-0.3,0.1-0.3,0.3V12c0,0.2,0.1,0.3,0.3,0.3  s0.3-0.1,0.3-0.3v-1.5C5.3,10.4,5.2,10.2,5,10.2z M6.1,9.2c0,0.2,0.1,0.3,0.3,0.3H8c0.2,0,0.3-0.1,0.3-0.3S8.2,8.9,8,8.9H6.4  C6.2,8.9,6.1,9,6.1,9.2z M4.2,8.4c0.1-0.1,0.1-0.3,0-0.4L3.1,6.9C3,6.8,2.8,6.8,2.7,6.9s-0.1,0.3,0,0.4l1.1,1.1  C3.9,8.6,4.1,8.6,4.2,8.4z M4.2,9.9c-0.1-0.1-0.3-0.1-0.4,0L2.7,11c-0.1,0.1-0.1,0.3,0,0.4c0.1,0.1,0.3,0.1,0.4,0l1.1-1.1  C4.4,10.2,4.4,10,4.2,9.9z M5.8,9.9c-0.1,0.1-0.1,0.3,0,0.4l1.1,1.1c0.1,0.1,0.3,0.1,0.4,0s0.1-0.3,0-0.4L6.2,9.9  C6.1,9.8,5.9,9.8,5.8,9.9z M5.8,8.4c0.1,0.1,0.3,0.1,0.4,0l1.1-1.1c0.1-0.1,0.1-0.3,0-0.4C7.2,6.8,7,6.8,6.9,6.9L5.8,8  C5.6,8.1,5.6,8.3,5.8,8.4z"/>
</svg>