<svg version="1.1" id="Layer_1" xmlns="http://www.w3.org/2000/svg" xmlns:xlink="http://www.w3.org/1999/xlink" x="0px" y="0px"
	 viewBox="0 0 30 30" style="enable-background:new 0 0 30 30;" xml:space="preserve">
<style type="text/css">
	.st0{fill:#9FA1A4;}
</style>
<path class="st0" d="M27.2,0H2.8C1.2,0,0,0.8,0,2.8v13v2.4v7.8v2.2C0,29.8,1.2,30,2.8,30h6.5h4.8h3h10.2c1.5,0,2.8-0.2,2.8-1.7V15.8
	v-5.6V2.8C30,0.8,28.8,0,27.2,0z M14.9,25c-1,0-2-0.2-3-0.4c0.4-0.6,0.8-1.4,1.1-2.2c0.1-0.5,0.7-2.9,0.7-2.9
	c0.4,0.7,1.4,1.3,2.6,1.3c3.4,0,5.6-3.1,5.6-7.2c0-3.1-2.6-6-6.6-6c-5,0-7.5,3.6-7.5,6.5c0,1.8,0.7,3.4,2.1,4c0.2,0.1,0.5,0,0.5-0.3
	c0-0.2,0.2-0.6,0.2-0.8c0.1-0.3,0-0.4-0.1-0.6c-0.4-0.5-0.7-1.1-0.7-2c0-2.6,2-5,5.1-5c2.8,0,4.3,1.7,4.3,4c0,3-1.3,5.6-3.3,5.6
	c-1.1,0-1.9-0.9-1.6-2c0.3-1.3,0.9-2.8,0.9-3.7c0-0.9-0.5-1.6-1.4-1.6c-1.1,0-2,1.2-2,2.7c0,1,0.3,1.7,0.3,1.7s-1.1,4.8-1.3,5.7
	c-0.2,0.8-0.2,1.7-0.2,2.4c-3.7-1.6-6.2-5.3-6.2-9.6c0-5.8,4.7-10.4,10.4-10.4c5.8,0,10.4,4.7,10.4,10.4C25.4,20.3,20.7,25,14.9,25z
	"/>
</svg>