<?xml version="1.0" encoding="UTF-8"?>
<!-- Generator: Adobe Illustrator 20.1.0, SVG Export Plug-In . SVG Version: 6.00 Build 0)  -->
<svg version="1.1" id="Layer_1" xmlns="http://www.w3.org/2000/svg" xmlns:xlink="http://www.w3.org/1999/xlink" x="0px" y="0px" width="21px" height="38px" viewBox="0 0 21 38" style="enable-background:new 0 0 21 38;" xml:space="preserve">
<style type="text/css">
	.st0{fill:#FFFFFF;}
	.st1{fill:none;stroke:#808080;stroke-width:2;stroke-miterlimit:10;}
</style>
<g id="Shape_291_copy_28">
	<path class="st0" d="M5.2,36.5c1.2,0,2.3-0.5,3.1-1.4l10.9-13.5l0.1-0.1c0.1-0.2,0.3-0.4,0.4-0.6v-0.1v-0.1   c0.1-0.2,0.2-0.4,0.2-0.6c0-0.1,0-0.1,0-0.2c0-0.2,0.1-0.4,0.1-0.6c0-0.1,0-0.2,0-0.3v-0.1c0-0.1,0-0.2,0-0.3   c0-0.2-0.1-0.4-0.1-0.6c0-0.1,0-0.1,0-0.2c-0.1-0.2-0.1-0.5-0.2-0.7l0,0V17c-0.1-0.2-0.3-0.5-0.4-0.7L19,16l0,0L8.4,3   C7.6,2,6.5,1.5,5.2,1.5c-0.9,0-1.8,0.3-2.5,0.9L2.6,2.5C0.9,4,0.6,6.6,2.1,8.4L10.6,19L2.1,29.5c-1.5,1.8-1.2,4.4,0.5,5.9   C3.3,36.1,4.3,36.5,5.2,36.5z"/>
	<path class="st1" d="M5.2,36.5c1.2,0,2.3-0.5,3.1-1.4l10.9-13.5l0.1-0.1c0.1-0.2,0.3-0.4,0.4-0.6v-0.1v-0.1   c0.1-0.2,0.2-0.4,0.2-0.6c0-0.1,0-0.1,0-0.2c0-0.2,0.1-0.4,0.1-0.6c0-0.1,0-0.2,0-0.3v-0.1c0-0.1,0-0.2,0-0.3   c0-0.2-0.1-0.4-0.1-0.6c0-0.1,0-0.1,0-0.2c-0.1-0.2-0.1-0.5-0.2-0.7l0,0V17c-0.1-0.2-0.3-0.5-0.4-0.7L19,16l0,0L8.4,3   C7.6,2,6.5,1.5,5.2,1.5c-0.9,0-1.8,0.3-2.5,0.9L2.6,2.5C0.9,4,0.6,6.6,2.1,8.4L10.6,19L2.1,29.5c-1.5,1.8-1.2,4.4,0.5,5.9   C3.3,36.1,4.3,36.5,5.2,36.5z"/>
</g>
</svg>