<svg version="1.1" id="Layer_1" xmlns="http://www.w3.org/2000/svg" xmlns:xlink="http://www.w3.org/1999/xlink" x="0px" y="0px"
	 viewBox="0 0 30 30" style="enable-background:new 0 0 30 30;" xml:space="preserve">
<style type="text/css">
	.st0{fill:#9FA1A4;}
	.st1{fill:#FFFFFF;}
</style>
<path class="st0" d="M27.2,0H2.8C1.2,0,0,0.8,0,2.8v13v2.4v7.8v2.2C0,29.8,1.2,30,2.8,30h6.5h4.8h3h10.2c1.5,0,2.8-0.2,2.8-1.7V15.8
	v-5.6V2.8C30,0.8,28.8,0,27.2,0z"/>
<g id="Lozenge">
	<g>
		<path class="st1" d="M26.1,10.1c0,0-0.2-1.6-0.9-2.2c-0.9-0.9-1.8-0.9-2.3-1c-3.2-0.2-7.9-0.2-7.9-0.2h0c0,0-4.7,0-7.9,0.2
			C6.8,6.9,5.8,6.9,5,7.8c-0.7,0.7-0.9,2.2-0.9,2.2s-0.2,1.8-0.2,3.6v1.7c0,1.8,0.2,3.6,0.2,3.6s0.2,1.6,0.9,2.2
			c0.9,0.9,2,0.9,2.5,1c1.8,0.2,7.7,0.2,7.7,0.2s4.7,0,7.9-0.2c0.4-0.1,1.4-0.1,2.3-1c0.7-0.7,0.9-2.2,0.9-2.2s0.2-1.8,0.2-3.6v-1.7
			C26.4,11.9,26.1,10.1,26.1,10.1z M12.8,17.5l0-6.3l6.1,3.2L12.8,17.5z"/>
	</g>
</g>
</svg>